<mxfile host="app.diagrams.net" modified="2022-05-13T08:26:20.911Z" agent="5.0 (Macintosh; Intel Mac OS X 10_15_7) AppleWebKit/537.36 (KHTML, like Gecko) Chrome/101.0.4951.64 Safari/537.36" etag="YomRweAd9EphWiaBsYfM" version="17.5.0" type="github">
  <diagram id="VE5xHgUEZyuboQlAcNsu" name="Page-1">
    <mxGraphModel dx="1184" dy="793" grid="1" gridSize="10" guides="1" tooltips="1" connect="1" arrows="1" fold="1" page="1" pageScale="1" pageWidth="1600" pageHeight="900" math="0" shadow="0">
      <root>
        <mxCell id="0" />
        <mxCell id="1" parent="0" />
        <mxCell id="jhOVN9B2TNookJ1NXroC-26" value="AWS Cloud" style="points=[[0,0],[0.25,0],[0.5,0],[0.75,0],[1,0],[1,0.25],[1,0.5],[1,0.75],[1,1],[0.75,1],[0.5,1],[0.25,1],[0,1],[0,0.75],[0,0.5],[0,0.25]];outlineConnect=0;gradientColor=none;html=1;whiteSpace=wrap;fontSize=12;fontStyle=0;container=1;pointerEvents=0;collapsible=0;recursiveResize=0;shape=mxgraph.aws4.group;grIcon=mxgraph.aws4.group_aws_cloud_alt;strokeColor=#232F3E;fillColor=none;verticalAlign=top;align=left;spacingLeft=30;fontColor=#232F3E;dashed=0;" vertex="1" parent="1">
          <mxGeometry x="150" y="80" width="850" height="450" as="geometry" />
        </mxCell>
        <mxCell id="jhOVN9B2TNookJ1NXroC-1" value="EKS Cluster(aiml-prd-aisp-eksc)" style="points=[[0,0],[0.25,0],[0.5,0],[0.75,0],[1,0],[1,0.25],[1,0.5],[1,0.75],[1,1],[0.75,1],[0.5,1],[0.25,1],[0,1],[0,0.75],[0,0.5],[0,0.25]];outlineConnect=0;gradientColor=none;html=1;whiteSpace=wrap;fontSize=12;fontStyle=0;container=1;pointerEvents=0;collapsible=0;recursiveResize=0;shape=mxgraph.aws4.group;grIcon=mxgraph.aws4.eks;strokeColor=#D86613;fillColor=none;verticalAlign=top;align=left;spacingLeft=30;fontColor=#D86613;dashed=0;" vertex="1" parent="jhOVN9B2TNookJ1NXroC-26">
          <mxGeometry x="40" y="90" width="210" height="290" as="geometry" />
        </mxCell>
        <mxCell id="jhOVN9B2TNookJ1NXroC-27" value="aiml vpc" style="points=[[0,0],[0.25,0],[0.5,0],[0.75,0],[1,0],[1,0.25],[1,0.5],[1,0.75],[1,1],[0.75,1],[0.5,1],[0.25,1],[0,1],[0,0.75],[0,0.5],[0,0.25]];outlineConnect=0;gradientColor=none;html=1;whiteSpace=wrap;fontSize=12;fontStyle=0;container=1;pointerEvents=0;collapsible=0;recursiveResize=0;shape=mxgraph.aws4.group;grIcon=mxgraph.aws4.group_vpc;strokeColor=#248814;fillColor=none;verticalAlign=top;align=left;spacingLeft=30;fontColor=#AAB7B8;dashed=0;" vertex="1" parent="jhOVN9B2TNookJ1NXroC-26">
          <mxGeometry x="20" y="32" width="390" height="380" as="geometry" />
        </mxCell>
        <mxCell id="jhOVN9B2TNookJ1NXroC-35" value="Security group" style="fillColor=none;strokeColor=#DD3522;verticalAlign=top;fontStyle=0;fontColor=#DD3522;" vertex="1" parent="jhOVN9B2TNookJ1NXroC-27">
          <mxGeometry x="250" y="60" width="130" height="130" as="geometry" />
        </mxCell>
        <mxCell id="jhOVN9B2TNookJ1NXroC-29" value="PODS" style="fillColor=none;strokeColor=#5A6C86;dashed=1;verticalAlign=top;fontStyle=0;fontColor=#5A6C86;" vertex="1" parent="jhOVN9B2TNookJ1NXroC-27">
          <mxGeometry x="40" y="60" width="160" height="210" as="geometry" />
        </mxCell>
        <mxCell id="jhOVN9B2TNookJ1NXroC-30" value="" style="sketch=0;outlineConnect=0;fontColor=#232F3E;gradientColor=none;fillColor=#4D27AA;strokeColor=none;dashed=0;verticalLabelPosition=bottom;verticalAlign=top;align=center;html=1;fontSize=12;fontStyle=0;aspect=fixed;pointerEvents=1;shape=mxgraph.aws4.application_load_balancer;" vertex="1" parent="jhOVN9B2TNookJ1NXroC-27">
          <mxGeometry x="280" y="90" width="78" height="78" as="geometry" />
        </mxCell>
        <mxCell id="jhOVN9B2TNookJ1NXroC-32" value="ARGOS" style="sketch=0;outlineConnect=0;fontColor=#232F3E;gradientColor=none;strokeColor=#232F3E;fillColor=#ffffff;dashed=0;verticalLabelPosition=bottom;verticalAlign=top;align=center;html=1;fontSize=12;fontStyle=0;aspect=fixed;shape=mxgraph.aws4.resourceIcon;resIcon=mxgraph.aws4.container_2;" vertex="1" parent="jhOVN9B2TNookJ1NXroC-27">
          <mxGeometry x="110" y="120" width="60" height="60" as="geometry" />
        </mxCell>
        <mxCell id="jhOVN9B2TNookJ1NXroC-36" value="" style="edgeStyle=orthogonalEdgeStyle;html=1;endArrow=none;elbow=vertical;startArrow=block;startFill=1;strokeColor=#545B64;rounded=0;" edge="1" parent="jhOVN9B2TNookJ1NXroC-27" source="jhOVN9B2TNookJ1NXroC-32" target="jhOVN9B2TNookJ1NXroC-30">
          <mxGeometry width="100" relative="1" as="geometry">
            <mxPoint x="370" y="270" as="sourcePoint" />
            <mxPoint x="470" y="270" as="targetPoint" />
            <Array as="points">
              <mxPoint x="220" y="150" />
              <mxPoint x="220" y="129" />
            </Array>
          </mxGeometry>
        </mxCell>
        <mxCell id="jhOVN9B2TNookJ1NXroC-28" value="eapp vpc" style="points=[[0,0],[0.25,0],[0.5,0],[0.75,0],[1,0],[1,0.25],[1,0.5],[1,0.75],[1,1],[0.75,1],[0.5,1],[0.25,1],[0,1],[0,0.75],[0,0.5],[0,0.25]];outlineConnect=0;gradientColor=none;html=1;whiteSpace=wrap;fontSize=12;fontStyle=0;container=1;pointerEvents=0;collapsible=0;recursiveResize=0;shape=mxgraph.aws4.group;grIcon=mxgraph.aws4.group_vpc;strokeColor=#248814;fillColor=none;verticalAlign=top;align=left;spacingLeft=30;fontColor=#AAB7B8;dashed=0;" vertex="1" parent="jhOVN9B2TNookJ1NXroC-26">
          <mxGeometry x="440" y="30" width="380" height="370" as="geometry" />
        </mxCell>
        <mxCell id="jhOVN9B2TNookJ1NXroC-31" value="Emart APP" style="outlineConnect=0;dashed=0;verticalLabelPosition=bottom;verticalAlign=top;align=center;html=1;shape=mxgraph.aws3.ec2_compute_container_2;fillColor=#F58534;gradientColor=none;" vertex="1" parent="jhOVN9B2TNookJ1NXroC-28">
          <mxGeometry x="160" y="130" width="60" height="34.5" as="geometry" />
        </mxCell>
        <mxCell id="jhOVN9B2TNookJ1NXroC-34" value="&lt;font style=&quot;font-size: 14px&quot;&gt;https://api-argos.emart.com&lt;/font&gt;" style="edgeStyle=orthogonalEdgeStyle;html=1;endArrow=none;elbow=vertical;startArrow=block;startFill=1;endFill=0;strokeColor=#545B64;rounded=0;entryX=0;entryY=0.5;entryDx=0;entryDy=0;entryPerimeter=0;" edge="1" parent="jhOVN9B2TNookJ1NXroC-26" source="jhOVN9B2TNookJ1NXroC-30" target="jhOVN9B2TNookJ1NXroC-31">
          <mxGeometry width="100" relative="1" as="geometry">
            <mxPoint x="390" y="340" as="sourcePoint" />
            <mxPoint x="490" y="340" as="targetPoint" />
          </mxGeometry>
        </mxCell>
      </root>
    </mxGraphModel>
  </diagram>
</mxfile>
